#!OML:ASF X:\für Bonn\!DataBase\2005_08_10_Bjorn_Final\c3d\bjorn.ASF
:FULLY-SPECIFIED
:DEGREES
32
root 7.78853 19.2319 2.47803 -188.599 84.2765 -184.665
lowerback 7.47803 3.02609 3.81634
upperback 13.252 5.15719 -1.19162
thorax 10.4712 3.40681 -3.22528
lowerneck 0.86754 -5.63333 5.05482
upperneck 17.0103 -6.96231 -1.9417
head 4.7174 -2.98198 -1.6617
rclavicle -1.81888e-014 1.96797e-014
rhumerus -5.28669 -2.50871 -86.0473
rradius 34.7265
rwrist -3.02849
rhand -20.0143 15.7369
rfingers 7.12502
rthumb 6.32601 -14.1486
lclavicle -1.81888e-014 1.96797e-014
lhumerus -25.7397 -1.20771 86.4583
lradius 20.1806
lwrist -32.7684
lhand -11.8658 -9.02842
lfingers 7.12502
lthumb 14.1864 20.4672
rfemur -11.035 -11.1241 17.7119
rtibia 30.956
rfoot -9.10376 17.5173
rtoes 1.35207
lfemur -20.7883 12.1687 -14.7407
ltibia 32.4366
lfoot -8.62052 -5.3459
ltoes -19.611
33
root 7.83394 19.2232 2.48274 -188.465 84.3449 -184.465
lowerback 8.05903 3.07064 3.7606
upperback 13.4675 5.28939 -1.32255
thorax 10.4108 3.5004 -3.36241
lowerneck 1.33201 -5.67767 4.89203
upperneck 15.9833 -7.07908 -1.3696
head 4.85926 -3.03206 -1.55512
rclavicle 3.44394e-014 -7.25564e-015
rhumerus -4.61389 -2.28108 -85.9422
rradius 34.8238
rwrist -2.93899
rhand -20.0357 15.758
rfingers 7.12502
rthumb 6.30536 -14.1281
lclavicle 3.44394e-014 -7.25564e-015
lhumerus -25.2734 -1.64352 86.3902
lradius 20.5453
lwrist -31.9894
lhand -12.5821 -9.18943
lfingers 7.12502
lthumb 13.496 20.3533
rfemur -10.8908 -11.0128 17.7455
rtibia 31.1059
rfoot -9.32436 17.5333
rtoes 1.39043
lfemur -20.8435 11.5867 -14.5732
ltibia 31.7836
lfoot -8.3913 -5.19164
ltoes -19.4095
34
root 7.87755 19.2111 2.48721 -188.136 84.4267 -184.068
lowerback 8.66961 3.10754 3.68275
upperback 13.6723 5.40669 -1.41438
thorax 10.3143 3.58096 -3.45045
lowerneck 1.66669 -5.72105 4.66849
upperneck 15.5406 -7.16668 -0.975742
head 4.64875 -3.08541 -1.36078
rclavicle -2.87741e-014 1.63003e-014
rhumerus -3.96799 -2.01103 -85.7729
rradius 34.9349
rwrist -2.79604
rhand -20.0555 15.7487
rfingers 7.12502
rthumb 6.28627 -14.138
lclavicle -2.87741e-014 1.63003e-014
lhumerus -24.8517 -2.003 86.3623
lradius 20.9667
lwrist -31.2209
lhand -13.2813 -9.38128
lfingers 7.12502
lthumb 12.822 20.2049
rfemur -10.7877 -10.8595 17.8055
rtibia 31.3197
rfoot -9.57099 17.54
rtoes 1.48193
lfemur -20.8798 11.1143 -14.4144
ltibia 31.2125
lfoot -8.14016 -5.04212
ltoes -19.4944
35
root 7.91932 19.1961 2.49042 -187.808 84.5074 -183.649
lowerback 9.30441 3.14055 3.61646
upperback 13.8949 5.52227 -1.50102
thorax 10.2279 3.66402 -3.54171
lowerneck 1.94685 -5.78094 4.42389
upperneck 15.1552 -7.27559 -0.596375
head 4.47276 -3.14958 -1.17406
rclavicle -6.99722e-014 2.5196e-014
rhumerus -3.29052 -1.80001 -85.6104
rradius 34.9675
rwrist -2.74744
rhand -20.1716 15.9843
rfingers 7.12502
rthumb 6.17411 -13.9057
lclavicle -6.99722e-014 2.5196e-014
lhumerus -24.4089 -2.42623 86.3748
lradius 21.3891
lwrist -30.3616
lhand -14.0378 -9.58381
lfingers 7.12502
lthumb 12.0927 20.0468
rfemur -10.6918 -10.6781 17.862
rtibia 31.5865
rfoot -9.88223 17.5071
rtoes 1.33887
lfemur -20.8908 10.7182 -14.2666
ltibia 30.7363
lfoot -7.85148 -4.98663
ltoes -19.5733
36
root 7.96005 19.1804 2.49309 -187.434 84.5847 -183.206
lowerback 9.92025 3.17208 3.56483
upperback 14.1326 5.63931 -1.60148
thorax 10.1771 3.75258 -3.655
lowerneck 2.05549 -5.84324 4.22701
upperneck 14.8845 -7.39434 -0.257498
head 4.37099 -3.21462 -1.02023
rclavicle 3.64521e-014 -2.28602e-014
rhumerus -2.57518 -1.61462 -85.4607
rradius 34.9919
rwrist -2.81412
rhand -20.2321 16.1774
rfingers 7.12502
rthumb 6.11572 -13.7143
lclavicle 3.64521e-014 -2.28602e-014
lhumerus -23.9381 -2.91666 86.374
lradius 21.8827
lwrist -29.501
lhand -14.7724 -9.82636
lfingers 7.12502
lthumb 11.3843 19.8446
rfemur -10.6523 -10.5095 17.9224
rtibia 31.9013
rfoot -10.1819 17.4837
rtoes 1.29942
lfemur -20.9231 10.4121 -14.1397
ltibia 30.3505
lfoot -7.54206 -4.94437
ltoes -19.5725
37
root 7.99895 19.1619 2.4952 -186.889 84.699 -182.589
lowerback 10.5504 3.20259 3.49958
upperback 14.3783 5.75313 -1.67085
thorax 10.1243 3.8369 -3.7297
lowerneck 2.15559 -5.89135 4.02611
upperneck 14.5921 -7.48823 0.02276
head 4.26249 -3.2717 -0.885357
rclavicle -1.32788e-013 1.05331e-013
rhumerus -1.86198 -1.42754 -85.283
rradius 35.0583
rwrist -2.81552
rhand -20.1555 16.1676
rfingers 7.12502
rthumb 6.18965 -13.722
lclavicle -1.32788e-013 1.05331e-013
lhumerus -23.4369 -3.32426 86.4163
lradius 22.3613
lwrist -28.5826
lhand -15.4688 -10.0947
lfingers 7.12502
lthumb 10.7126 19.6122
rfemur -10.6301 -10.3154 18.003
rtibia 32.2446
rfoot -10.4826 17.4779
rtoes 1.35302
lfemur -20.9637 10.2022 -14.0025
ltibia 30.0718
lfoot -7.22535 -4.91236
ltoes -19.7018
38
root 8.0363 19.1436 2.49506 -186.527 84.8031 -182.163
lowerback 11.1841 3.24035 3.44214
upperback 14.6286 5.87921 -1.74736
thorax 10.0816 3.9302 -3.81795
lowerneck 2.18459 -5.94377 3.84635
upperneck 14.3094 -7.59605 0.33046
head 4.17271 -3.33334 -0.749088
rclavicle -3.89369e-014 -6.53505e-015
rhumerus -1.12692 -1.39417 -85.1156
rradius 35.0981
rwrist -2.70379
rhand -20.0456 16.1232
rfingers 7.12502
rthumb 6.29578 -13.7633
lclavicle -3.89369e-014 -6.53505e-015
lhumerus -22.9029 -3.68821 86.4474
lradius 22.8302
lwrist -27.8582
lhand -16.1472 -10.3792
lfingers 7.12502
lthumb 10.0581 19.3604
rfemur -10.641 -10.1313 18.0544
rtibia 32.6148
rfoot -10.7772 17.4906
rtoes 1.38974
lfemur -21.0076 10.0192 -13.8994
ltibia 29.9013
lfoot -6.81962 -4.86077
ltoes -19.3629
39
root 8.07033 19.1244 2.49437 -185.917 84.9002 -181.5
lowerback 11.8111 3.26029 3.39809
upperback 14.8956 5.98321 -1.8069
thorax 10.0626 4.0147 -3.895
lowerneck 2.20589 -5.97849 3.65001
upperneck 13.9875 -7.68079 0.638184
head 4.07245 -3.38646 -0.609774
rclavicle 3.34331e-014 -1.95679e-014
rhumerus -0.346767 -1.3259 -84.9337
rradius 35.1189
rwrist -2.56731
rhand -19.9569 16.0195
rfingers 7.12502
rthumb 6.38141 -13.8644
lclavicle 3.34331e-014 -1.95679e-014
lhumerus -22.3519 -4.1085 86.5196
lradius 23.3664
lwrist -27
lhand -16.7643 -10.6522
lfingers 7.12502
lthumb 9.46274 19.1153
rfemur -10.6878 -9.9702 18.126
rtibia 33.011
rfoot -11.0774 17.4981
rtoes 1.4322
lfemur -21.0576 9.82225 -13.7773
ltibia 29.8379
lfoot -6.3446 -4.75496
ltoes -18.5238
40
root 8.10248 19.1035 2.4921 -185.324 84.9978 -180.846
lowerback 12.4728 3.28114 3.37709
upperback 15.1702 6.09473 -1.87774
thorax 10.0424 4.10851 -4.00086
lowerneck 2.21619 -6.01546 3.52545
upperneck 13.6102 -7.77104 0.955095
head 3.95314 -3.44072 -0.479593
rclavicle -4.33568e-014 8.22161e-014
rhumerus 0.47486 -1.32105 -84.7477
rradius 35.1202
rwrist -2.39019
rhand -19.7646 15.8956
rfingers 7.12502
rthumb 6.56707 -13.9826
lclavicle -4.33568e-014 8.22161e-014
lhumerus -21.7662 -4.67873 86.5922
lradius 23.9368
lwrist -26.0778
lhand -17.4557 -10.7569
lfingers 7.12502
lthumb 8.79559 19.0398
rfemur -10.7436 -9.82344 18.189
rtibia 33.4297
rfoot -11.4098 17.5022
rtoes 1.23656
lfemur -21.0979 9.64564 -13.6509
ltibia 29.8775
lfoot -5.80277 -4.66445
ltoes -17.1375
41
root 8.13101 19.0811 2.48933 -184.689 85.0842 -180.162
lowerback 13.1515 3.28739 3.35194
upperback 15.4564 6.18868 -1.9338
thorax 10.0258 4.19392 -4.09032
lowerneck 2.17044 -6.04157 3.45008
upperneck 13.238 -7.84035 1.17613
head 3.84112 -3.48655 -0.391167
rclavicle -3.33337e-014 2.96655e-014
rhumerus 1.32825 -1.39392 -84.5647
rradius 35.1249
rwrist -2.16875
rhand -19.5611 15.7734
rfingers 7.12502
rthumb 6.7635 -14.0986
lclavicle -3.33337e-014 2.96655e-014
lhumerus -21.1006 -5.11927 86.6831
lradius 24.502
lwrist -25.1783
lhand -17.9915 -10.7858
lfingers 7.12502
lthumb 8.27849 19.032
rfemur -10.8348 -9.68573 18.2468
rtibia 33.8721
rfoot -11.7069 17.5274
rtoes 1.2898
lfemur -21.1707 9.54551 -13.5511
ltibia 30.008
lfoot -5.27332 -4.56443
ltoes -15.8286
42
root 8.1585 19.0599 2.486 -183.798 85.2209 -179.284
lowerback 13.7517 3.31001 3.32783
upperback 15.7459 6.30143 -1.98152
thorax 10.062 4.28832 -4.16571
lowerneck 2.04527 -6.06848 3.29233
upperneck 12.8972 -7.92119 1.46724
head 3.76306 -3.53814 -0.270778
rclavicle -7.22178e-014 1.7111e-014
rhumerus 2.20386 -1.40752 -84.3626
rradius 35.1499
rwrist -1.95838
rhand -19.3551 15.5991
rfingers 7.12502
rthumb 6.96236 -14.2664
lclavicle -7.22178e-014 1.7111e-014
lhumerus -20.4162 -5.74168 86.8039
lradius 25.1273
lwrist -24.1122
lhand -18.4315 -10.9101
lfingers 7.12502
lthumb 7.8539 18.9241
rfemur -11.0172 -9.53032 18.3314
rtibia 34.3364
rfoot -11.9576 17.5984
rtoes 1.38509
lfemur -21.3248 9.62357 -13.4802
ltibia 30.2161
lfoot -4.64636 -4.45354
ltoes -15.3228
43
root 8.18335 19.0391 2.48271 -182.933 85.3072 -178.533
lowerback 14.2593 3.31501 3.28305
upperback 16.0173 6.38356 -2.0393
thorax 10.1258 4.36378 -4.23353
lowerneck 1.9566 -6.0913 3.2316
upperneck 12.4767 -7.98514 1.66321
head 3.64211 -3.58403 -0.194392
rclavicle -9.77617e-016 1.31959e-014
rhumerus 3.06871 -1.46126 -84.1833
rradius 35.1853
rwrist -1.71687
rhand -19.1437 15.4538
rfingers 7.12502
rthumb 7.1664 -14.4049
lclavicle -9.77617e-016 1.31959e-014
lhumerus -19.7086 -6.37574 86.8782
lradius 25.786
lwrist -23.0961
lhand -18.866 -11.0369
lfingers 7.12502
lthumb 7.43448 18.8125
rfemur -11.3415 -9.38364 18.4289
rtibia 34.8274
rfoot -12.2692 17.5861
rtoes 1.25336
lfemur -21.6274 9.72626 -13.4565
ltibia 30.4853
lfoot -3.86623 -4.36205
ltoes -14.9316
44
root 8.20638 19.0174 2.47854 -181.818 85.405 -177.509
lowerback 14.8173 3.31641 3.26129
upperback 16.283 6.46383 -2.09011
thorax 10.1599 4.44073 -4.31224
lowerneck 1.88854 -6.1173 3.13421
upperneck 12.0806 -8.0511 1.88133
head 3.52965 -3.63049 -0.104986
rclavicle -4.65296e-014 8.35672e-015
rhumerus 3.90161 -1.59886 -84.041
rradius 35.1859
rwrist -1.37354
rhand -18.9737 15.3816
rfingers 7.12502
rthumb 7.33057 -14.4714
lclavicle -4.65296e-014 8.35672e-015
lhumerus -18.9526 -7.02401 86.9392
lradius 26.3576
lwrist -22.1868
lhand -19.2798 -11.1672
lfingers 7.12502
lthumb 7.03506 18.6959
rfemur -11.6515 -9.22783 18.5347
rtibia 35.3402
rfoot -12.5541 17.5905
rtoes 1.18537
lfemur -21.9358 9.88145 -13.4133
ltibia 30.8157
lfoot -3.02996 -4.30961
ltoes -14.1841
45
root 8.22742 18.9922 2.47322 -180.387 85.4776 -176.168
lowerback 15.3833 3.29668 3.22332
upperback 16.537 6.5094 -2.10395
thorax 10.1657 4.49382 -4.34294
lowerneck 1.91911 -6.14428 2.95533
upperneck 11.6745 -8.11065 2.12349
head 3.40131 -3.67665 0.00891283
rclavicle 1.11059e-013 -6.79284e-014
rhumerus 4.70213 -1.50682 -83.8123
rradius 35.1451
rwrist -1.36786
rhand -18.8822 15.4032
rfingers 7.12502
rthumb 7.41883 -14.4467
lclavicle 1.11059e-013 -6.79284e-014
lhumerus -18.204 -7.64309 87.0137
lradius 26.8919
lwrist -21.3359
lhand -19.7189 -11.3889
lfingers 7.12502
lthumb 6.61115 18.4879
rfemur -11.9861 -9.08852 18.6615
rtibia 35.8859
rfoot -12.8356 17.6002
rtoes 1.26196
lfemur -22.2728 10.0224 -13.3511
ltibia 31.1909
lfoot -2.15273 -4.28124
ltoes -13.6528
46
root 8.2465 18.9663 2.46774 -179.18 85.5273 -175.043
lowerback 16.0064 3.27888 3.2162
upperback 16.7827 6.56554 -2.14559
thorax 10.1439 4.55923 -4.42776
lowerneck 1.95918 -6.18149 2.88003
upperneck 11.2228 -8.18095 2.34871
head 3.25127 -3.72608 0.10083
rclavicle -1.29955e-014 -2.04997e-015
rhumerus 5.45345 -1.48787 -83.6325
rradius 35.0955
rwrist -1.57016
rhand -18.843 15.5951
rfingers 7.12502
rthumb 7.45673 -14.2534
lclavicle -1.29955e-014 -2.04997e-015
lhumerus -17.3806 -8.37626 87.0316
lradius 27.3257
lwrist -20.655
lhand -20.239 -11.6036
lfingers 7.12502
lthumb 6.10912 18.2883
rfemur -12.3299 -8.95497 18.7708
rtibia 36.4645
rfoot -13.1597 17.5921
rtoes 1.09574
lfemur -22.6201 10.1636 -13.3196
ltibia 31.625
lfoot -1.33383 -4.47526
ltoes -12.9706
